<?xml version="1.0" encoding="utf-8"?>
<!-- Generator: Adobe Illustrator 26.0.2, SVG Export Plug-In . SVG Version: 6.00 Build 0)  -->
<svg version="1.1" id="Layer_1" xmlns="http://www.w3.org/2000/svg" xmlns:xlink="http://www.w3.org/1999/xlink" x="0px" y="0px"
	 viewBox="0 0 992.1 212.3" style="enable-background:new 0 0 992.1 212.3;" xml:space="preserve">
<style type="text/css">
	.st0{fill:#00D80F;}
	.st1{fill:#FFFFFF;}
</style>
<rect width="996.7" height="212.3"/>
<path class="st0" d="M218.7,28.6l-66,170.5h44.6l14.2-40.8h63.6l14.2,40.8h43.1L266.6,28.6H218.7z M265.6,29.8l64.9,168h-40.2
	l-14.2-40.8h-65.7l-14.2,40.8h-41.6l65-168H265.6z M242.8,62l-24,68.8h48.8l-24-68.8H242.8z M265.8,129.5h-45l22.5-64.7L265.8,129.5
	z"/>
<path class="st0" d="M90.9,72.3c2.6-0.7,6.3-1.3,10.7-1.3c16.3,0,28.1,8.6,33,24.5h0.8V73H172v124.8h-37.8v-69.7
	c0-17.6-10.9-27.8-29.5-27.8c-5.4,0-10.6,0.8-13.7,2V72.3z M89.5,104.1l1.9-0.7c2.9-1.1,7.9-1.9,13.2-1.9c9,0,16,2.5,20.7,6.9
	c4.7,4.5,7.4,11.1,7.4,19.6v71h40.6V71.8h-39.3V90c-2.6-5.7-6.2-10.3-10.7-13.6c-5.9-4.3-13.2-6.6-21.7-6.6c-4.5,0-8.4,0.6-11.2,1.3
	l-1,0.3V104.1z"/>
<path class="st0" d="M44.3,157.9V98.2H18.6V72.6h25.6V43.8h37.8v28.8h19.6v25.6H82.1v65.6c0,24.3-12.7,34.1-45.3,34.1
	c-7.6,0-14.1-0.6-18-1.4v-25c2.3,0.3,5.8,0.6,9.2,0.6v-1.3c-3.3,0-6.7-0.2-9-0.6l-1.6-0.2v27.5l1.1,0.2c4,0.8,10.6,1.4,18.3,1.4
	c16.4,0,28.2-2.4,35.8-8.2c7.7-5.8,10.9-14.8,10.9-27.1V99.4H103V71.3H83.5V42.5H42.9v28.8H17.2v28.1h25.6v58.5
	c0,4.6-1.2,7.7-3.6,9.7c-2.3,2-6,3.1-11.4,3.1v1.3C39.1,172,44.3,167.5,44.3,157.9z"/>
<path class="st1" d="M365.8,147.9l0.2,1.4c1.4,8,5.1,14,11,18.1c5.9,4.1,14.2,6.3,25,6.3v1.7l-1,0c-21.3-0.3-33.7-9.3-36.6-25.8
	h-27.1c2.8,28.1,26.7,47.3,61.3,47.8l1.7,0c37.2,0,63.5-19.3,64.3-46.7l0-1.3c0-23.8-11.8-35.6-44.5-43.8l-25-6.1
	c-18.1-4.6-26.6-11.9-26.9-22.8l0-0.5c0-14.1,13.1-23.9,32.8-23.9l0.9,0c19.1,0.3,31.2,9.6,33.3,24.4l0.1,0.7h25.8
	c-1.2-26.9-25-46.6-57.7-47.2l-1.6,0c-35.6,0-60.3,19.7-60.3,47.4l0,1c0.4,21.5,14.4,35.8,42.4,42.9l28.5,7.3
	c18.2,4.8,24.9,11,24.9,22.5l0,0.7c-0.4,14.2-13.9,23.2-35.4,23.2v-1.7c10.8,0,19.2-2.3,25-6.2c5.7-3.9,8.8-9.3,8.8-16.1
	c0-5.4-1.5-9.3-5.1-12.5c-3.6-3.3-9.5-6-18.6-8.4v0l-28.4-7.3c-14.4-3.7-25.3-9.3-32.7-16.9c-7.4-7.7-11-17.3-11-28.7
	c0-28.9,25.9-49.1,62-49.1c33.5,0,58.8,19.7,60.8,47.5l0.1,1.3l0.1,1.8h-29l-0.2-1.5c-0.9-7.3-4.3-13.2-9.7-17.3
	c-5.5-4.1-13.3-6.4-22.9-6.4c-9.6,0-17.4,2.4-22.8,6.3c-5.3,3.9-8.3,9.4-8.3,15.9l0,0.9c0.2,4.7,2.1,8.6,6,11.9
	c4.1,3.6,10.6,6.5,19.6,8.8l25,6.1l0,0c16.4,4.1,27.9,9.2,35.2,16.5c7.4,7.4,10.5,16.7,10.5,28.9l0,1.4c-0.4,14.1-7.3,26-18.7,34.5
	c-11.7,8.7-28.2,13.8-47.3,13.8c-35.5,0-60.9-19.1-64.5-48l-0.2-1.4l-0.2-1.8H365.8z"/>
<path class="st1" d="M565.8,135.2c0-38.7-25.1-62.6-62.3-62.6c-37.3,0-62.4,24-62.4,62.6c0,38.5,25.1,62.6,62.4,62.6
	C540.7,197.9,565.8,173.7,565.8,135.2z M541.5,135.2c0-14.1-3.8-25-10.4-32.3c-6.6-7.3-16-11.3-27.5-11.3c-11.5,0-21,3.9-27.6,11.3
	c-6.6,7.4-10.5,18.2-10.5,32.3c0,14.1,3.9,25,10.5,32.3c6.6,7.3,16.1,11.3,27.6,11.3v1.3c-23.8,0-39.5-16.3-39.5-44.8
	s15.7-44.8,39.5-44.8c23.8,0,39.4,16.3,39.4,44.8S527.3,180,503.5,180v-1.3c11.5,0,21-3.9,27.5-11.3
	C537.6,160.2,541.5,149.3,541.5,135.2z M567.2,135.2c0,19.5-6.4,35.5-17.6,46.6c-11.2,11.1-27.2,17.3-46.1,17.3
	c-19,0-35-6.1-46.2-17.3c-11.2-11.1-17.6-27.1-17.6-46.6c0-19.6,6.4-35.6,17.6-46.7c11.2-11.1,27.2-17.2,46.2-17.2
	c18.9,0,34.9,6.1,46.1,17.2C560.8,99.6,567.2,115.6,567.2,135.2z"/>
<path class="st1" d="M542,29.3v168h22.5v-168H542z M566,198.6h-25.3V28.1H566V198.6z"/>
<path class="st1" d="M564.5,149.6v-75H542v78.6l0,1.3c0.5,26.3,17.1,42.8,45.2,43.3l1.4,0c20.7,0,34.7-7.8,42.7-21.8h0.5v19.7h21.4
	V74.7h-22.5v71.1l0,1c-0.4,20.1-13.5,33.2-35.1,33.2v-1.3c10.6,0,19-3.3,24.7-8.9c5.8-5.7,9-13.9,9-23.9V73.4h25.3V197h-24.2v-17
	c-3.9,5.6-8.9,10.1-15,13.3c-7.3,3.8-16.3,5.8-26.8,5.8c-15,0-27.1-4.4-35.4-12.4c-8.3-8-12.7-19.5-12.7-33.5V73.4h25.3v76.2l0,0.9
	c0.2,9.2,2.7,16.1,7.4,20.8c4.8,4.8,12.2,7.3,22.3,7.3v1.3l-1,0c-19.9-0.3-29.8-10.6-30.1-29.4L564.5,149.6z"/>
<path class="st1" d="M652.9,164.3v-72h26.2V75.7h-26.2V46.5h-22.5v29.2h-20.1v16.7h20.1v73l0,1.1c0.3,22.1,9.7,31,33.2,31.3l1.1,0
	c5.3,0,11.5-0.4,14.2-0.9v-17c-1.6,0.2-6.7,0.6-9.3,0.6v-1.3c2.5,0,7.6-0.3,9.1-0.6l1.6-0.2v19.5l-1.1,0.2c-2.9,0.6-9.3,1-14.6,1
	c-12.5,0-21.6-2.3-27.4-7.8c-5.9-5.5-8.3-14-8.3-25.8V93.6h-20.1V74.4H629V45.2h25.3v29.2h26.2v19.2h-26.2v70.7l0,1
	c0.1,4.8,1.4,8.2,3.6,10.3c2.4,2.3,6.1,3.5,11.7,3.5v1.3l-1.1,0c-10.4-0.3-15.3-5-15.6-15L652.9,164.3z"/>
<path class="st1" d="M680.5,75.1v121.1h22.5V75.1H680.5z M705.9,42.1c0-7-6.3-12.6-14.1-12.6c-7.6,0-14,5.6-14,12.6
	c0,6.9,6.3,12.6,14,12.6C699.6,54.7,705.9,49,705.9,42.1z M704.5,197.4h-25.3V73.8h25.3V197.4z M707.3,42.1c0,7.6-7,13.8-15.5,13.8
	c-8.4,0-15.4-6.3-15.4-13.8c0-7.7,7-13.8,15.4-13.8C700.3,28.3,707.3,34.4,707.3,42.1z"/>
<path class="st1" d="M804.5,136.6c0-38.7-25.1-62.6-62.3-62.6c-37.3,0-62.4,24-62.4,62.6c0,38.5,25.1,62.6,62.4,62.6
	C779.4,199.2,804.5,175.1,804.5,136.6z M780.2,136.6c0-14.1-3.8-25-10.4-32.3c-6.6-7.3-16-11.3-27.5-11.3c-11.5,0-21,3.9-27.6,11.3
	c-6.6,7.4-10.5,18.2-10.5,32.3s3.9,25,10.5,32.3c6.6,7.3,16.1,11.3,27.6,11.3v1.3c-23.8,0-39.5-16.3-39.5-44.8s15.7-44.8,39.5-44.8
	c23.8,0,39.4,16.3,39.4,44.8s-15.5,44.8-39.4,44.8v-1.3c11.5,0,21-3.9,27.5-11.3C776.3,161.6,780.2,150.7,780.2,136.6z M805.9,136.6
	c0,19.5-6.4,35.5-17.6,46.6c-11.2,11.1-27.2,17.3-46.1,17.3c-19,0-35-6.1-46.2-17.3c-11.2-11.1-17.6-27.1-17.6-46.6
	c0-19.6,6.4-35.6,17.6-46.7c11.2-11.1,27.2-17.2,46.2-17.2c18.9,0,34.9,6.1,46.1,17.2C799.5,101,805.9,117,805.9,136.6z"/>
<path class="st1" d="M892.6,119.6c0-27.5-17.1-44.6-46.6-44.6c-20.9,0-35.2,8.4-42.7,21.4h-0.5V77.1h-21.2v121.1H804v-71.3
	c0-20.5,13.9-34,35.1-34c20.7,0,31,10.7,31,30.3v75h22.5V119.6z M804.1,92.5c8.2-11.6,22.3-18.8,41.9-18.8
	c15.1,0,27.1,4.4,35.4,12.4c8.3,8,12.6,19.5,12.6,33.5v79.9h-25.3v-76.2c0-9.6-2.5-16.8-7.3-21.6c-4.8-4.8-12.1-7.4-22.2-7.4
	c-10.3,0-18.7,3.3-24.5,8.9c-5.8,5.7-9.2,13.8-9.2,23.8v72.5h-25.3V75.8h24V92.5z"/>
<path class="st1" d="M894.2,160.1l0.2,1c1.2,6,4.3,10.5,9.2,13.6c4.9,3.1,11.8,4.7,20.8,4.7v1.3l-0.9,0
	c-17.7-0.2-28.1-6.9-30.5-19.3h-22.5c2.3,21.1,22.3,35.4,51.1,35.9l1.4,0c31,0,52.9-14.4,53.6-35l0-1c0-17.8-9.8-26.7-37-32.8
	l-20.9-4.5c-15-3.4-22.2-8.9-22.4-17.1l0-0.4c0-10.6,10.9-17.9,27.3-17.9l0.8,0c15.9,0.2,26,7.2,27.8,18.3l0.1,0.5h21.5
	c-1-20.2-20.9-34.9-48-35.4l-1.3,0c-29.7,0-50.3,14.8-50.3,35.5l0,0.8c0.4,16.1,12,26.8,35.3,32.2l23.7,5.5
	c15.2,3.6,20.7,8.3,20.7,16.9l0,0.5c-0.3,10.7-11.5,17.4-29.5,17.4v-1.3c9,0,16-1.7,20.8-4.6c4.7-2.9,7.3-7,7.3-12
	c0-4-1.3-7-4.2-9.4c-3-2.5-7.9-4.5-15.5-6.3v0l-23.7-5.5c-12-2.8-21.1-7-27.2-12.7c-6.2-5.7-9.2-12.9-9.2-21.5
	c0-21.7,21.5-36.8,51.6-36.8c27.9,0,49,14.8,50.7,35.6l0.1,1l0.1,1.3H951l-0.1-1.1c-0.7-5.5-3.6-9.9-8.1-12.9
	c-4.6-3.1-11-4.8-19.1-4.8c-8,0-14.5,1.8-19,4.7c-4.4,2.9-6.9,7.1-6.9,11.9l0,0.7c0.2,3.5,1.8,6.4,5,8.9c3.5,2.7,8.8,4.9,16.3,6.6
	l20.9,4.5l0,0c13.7,3.1,23.2,6.9,29.4,12.4c6.2,5.5,8.7,12.5,8.7,21.7l0,1c-0.3,10.5-6.1,19.5-15.6,25.9
	c-9.8,6.6-23.5,10.3-39.4,10.3c-29.6,0-50.8-14.3-53.7-36l-0.1-1l-0.1-1.4H894.2z"/>
</svg>
