<svg id="Layer_1" data-name="Layer 1" xmlns="http://www.w3.org/2000/svg" viewBox="0 0 397.35 163.59"><defs><style>.cls-1{fill:none;stroke:#000;stroke-miterlimit:10;stroke-width:6px;}</style></defs><path class="cls-1" d="M1181.76,2066.73h-55.34l-9.3-30.83h-53.61l-9.3,30.83H998.86l58.45-155h66Zm-91-118.06h-1l-16.63,55.11h34.25Z" transform="translate(-788.75 -1908.72)"/><path class="cls-1" d="M985.58,2066.73H934.7v-59.94c0-16.54-9.8-24.92-28.91-24.92a43.4,43.4,0,0,0-14.76,2.47v-37.06a41.29,41.29,0,0,1,12.28-1.72c16.38,0,26.93,8.38,30.4,23.85h1v-21.27h50.88Z" transform="translate(-788.75 -1908.72)"/><path class="cls-1" d="M815.21,2069.31a146.63,146.63,0,0,1-23.46-1.61V2037a62.87,62.87,0,0,0,8.69.54c10.42,0,15.39-3.87,15.39-13.43v-44.15H791.75v-31.79h24.08v-26H866.7v26h18.12v31.79H866.7v50.92C866.7,2058.78,850.69,2069.31,815.21,2069.31Z" transform="translate(-788.75 -1908.72)"/></svg>