<svg width="23" height="135" viewBox="0 0 23 135" fill="none" xmlns="http://www.w3.org/2000/svg">
<path d="M2.94824 37.2744V133.759H19.0908V37.2744H2.94824ZM21.1318 11.0195C21.1318 5.45312 16.5859 1 11.0195 1C5.5459 1 1 5.45312 1 11.0195C1 16.4932 5.5459 21.0391 11.0195 21.0391C16.5859 21.0391 21.1318 16.4932 21.1318 11.0195ZM20.0908 134.759H1.94824V36.2744H20.0908V134.759ZM22.1318 11.0195C22.1318 17.0514 17.1322 22.0391 11.0195 22.0391C4.99361 22.0391 0 17.0454 0 11.0195C0 4.89483 4.99965 0 11.0195 0C17.1262 0 22.1318 4.88887 22.1318 11.0195Z" fill="black"/>
</svg>
