<svg width="82" height="101" viewBox="0 0 82 101" fill="none" xmlns="http://www.w3.org/2000/svg">
<path d="M80.5996 36.5322C80.5996 14.6377 68.3535 1 47.2012 1C32.2648 1.00011 21.9668 7.67977 16.5859 18.0703H16.2148V2.66992H1V99.1543H17.1426V42.377C17.1426 26.049 27.0695 15.2873 42.2842 15.2871C57.1279 15.2871 64.457 23.8223 64.457 39.4082V99.1543H80.5996V36.5322ZM17.2148 14.9766C23.0956 5.75247 33.2117 0.000100383 47.2012 0C57.9996 0 66.6358 3.48765 72.5654 9.875C78.4857 16.2526 81.5996 25.4039 81.5996 36.5322V100.154H63.457V39.4082C63.457 31.755 61.6567 26.0043 58.1953 22.1729C54.7504 18.3597 49.5136 16.2871 42.2842 16.2871C34.9239 16.2872 28.9159 18.8838 24.7422 23.3887C20.5614 27.9012 18.1426 34.4144 18.1426 42.377V100.154H0V1.66992H17.2148V14.9766Z" fill="black"/>
</svg>
