<svg width="92" height="102" viewBox="0 0 92 102" fill="none" xmlns="http://www.w3.org/2000/svg">
<path d="M90.3408 50.9121C90.3408 20.1113 72.3428 1 45.7168 1C18.9981 1.00009 1 20.1114 1 50.9121C1 81.62 18.9981 100.824 45.7168 100.824C72.3428 100.824 90.3408 81.6201 90.3408 50.9121ZM72.9199 50.9121C72.9199 39.6988 70.1734 31.0164 65.4424 25.1582C60.731 19.3246 53.9759 16.1943 45.7168 16.1943C37.4573 16.1944 30.6789 19.3253 25.9443 25.1602C21.1905 31.0188 18.4209 39.7005 18.4209 50.9121C18.4209 62.1237 21.1905 70.8054 25.9443 76.6641C30.6789 82.499 37.4573 85.6298 45.7168 85.6299V86.6299C28.6466 86.6298 17.4209 73.6415 17.4209 50.9121C17.4209 28.1827 28.6466 15.1944 45.7168 15.1943C62.7871 15.1943 73.9199 28.1826 73.9199 50.9121C73.9199 73.6416 62.7871 86.6299 45.7168 86.6299V85.6299C53.9759 85.6299 60.731 82.4996 65.4424 76.666C70.1734 70.8078 72.9199 62.1254 72.9199 50.9121ZM91.3408 50.9121C91.3408 66.4588 86.7829 79.194 78.7549 88.0547C70.7185 96.9244 59.2825 101.824 45.7168 101.824C32.1058 101.824 20.647 96.9255 12.5986 88.0557C4.5584 79.1948 0 66.459 0 50.9121C0 35.3196 4.55772 22.5833 12.5986 13.7334C20.6477 4.87463 32.1072 4.37212e-05 45.7168 0C59.2808 0 70.7168 4.87504 78.7539 13.7334C86.7829 22.5831 91.3408 35.3195 91.3408 50.9121Z" fill="black"/>
</svg>
