<svg width="61" height="104" viewBox="0 0 61 104" fill="none" xmlns="http://www.w3.org/2000/svg">
<path d="M1 2.02051C2.85547 1.46387 5.5459 1 8.7002 1C20.3896 1 28.832 7.86523 32.3574 20.4824H32.9141V2.57715H59.0762V102.03H31.9863V46.459C31.9863 32.4502 24.1934 24.2861 10.834 24.2861C6.9375 24.2861 3.22656 24.9355 1 25.8633V2.02051ZM0 27.3633L1.38477 26.7861C3.44996 25.9257 7.01876 25.2861 10.834 25.2861C17.3069 25.2861 22.3084 27.2588 25.6963 30.8096C29.0904 34.3668 30.9863 39.6351 30.9863 46.459V103.03H60.0762V1.57715H31.9141V16.0811C30.0741 11.5626 27.4859 7.91323 24.2246 5.23633C20.0141 1.78043 14.7499 0 8.7002 0C5.45395 0 2.66645 0.476466 0.712891 1.0625L0 1.27637V27.3633Z" fill="#2FB777"/>
</svg>
