<svg width="102" height="141" viewBox="0 0 102 141" fill="none" xmlns="http://www.w3.org/2000/svg">
<path d="M18.7578 99.2676L18.8555 100.159C20.3553 113.922 33.4463 123.296 52.2803 123.296V124.296C33.1689 124.296 19.4385 114.74 17.8613 100.268H1.06934C2.64648 123.925 22.3145 139.325 50.7031 139.325C81.5039 139.325 100.801 124.018 100.801 99.5254C100.801 80.3213 89.5752 69.6523 61.8359 62.6943L47.8271 58.9834C29.6436 54.252 22.2217 48.2217 22.2217 38.1094C22.2217 25.0283 34.2822 16.0293 51.6309 16.0293C69.0723 16.0293 80.6689 24.8428 82.1533 39.2227H98.8525C98.1104 16.7715 78.8135 1 52.1875 1C24.3555 1 4.87305 16.5859 4.87305 38.8516C4.87305 57.0352 15.8203 67.8896 40.498 74.1982L57.6611 78.6514C75.6592 83.29 83.5449 90.248 83.5449 101.566C83.5449 114.74 70.3711 124.296 52.2803 124.296V123.296C61.159 123.296 68.7574 120.95 74.1084 117.062C79.4458 113.185 82.5449 107.785 82.5449 101.566C82.5449 96.1814 80.6871 91.8889 76.6895 88.3525C72.8957 84.9966 67.129 82.2833 59.0566 80.0586L57.4111 79.6201L57.4102 79.6191L40.25 75.166V75.167C27.8325 71.9926 18.7299 67.642 12.7275 61.6875C6.68926 55.6973 3.87305 48.1686 3.87305 38.8516C3.87305 27.401 8.89306 17.6555 17.4688 10.7949C26.0294 3.94652 38.092 0 52.1875 0C79.1926 0 99.0866 16.0523 99.8516 39.1895L99.8857 40.2227H81.251L81.1582 39.3252C80.4431 32.3979 77.3053 26.8553 72.2705 23.0293C67.2199 19.1915 60.1894 17.0293 51.6309 17.0293C43.1196 17.0293 35.9928 19.2375 31.0205 22.9639C26.0674 26.6759 23.2217 31.9095 23.2217 38.1094C23.2217 42.8646 24.9415 46.6158 28.8369 49.7891C32.5478 52.812 38.2568 55.3268 46.415 57.5703L48.0791 58.0156L48.083 58.0166L62.0918 61.7275H62.0908C76.0137 65.221 85.9504 69.6794 92.4082 75.791C98.9166 81.9505 101.801 89.7008 101.801 99.5254C101.801 112.06 96.8496 122.304 87.9238 129.393C79.0235 136.461 66.2573 140.325 50.7031 140.325C36.3334 140.325 24.0876 136.427 15.2139 129.454C6.32659 122.47 0.878581 112.443 0.0712891 100.334L0 99.2676H18.7578Z" fill="black"/>
</svg>
