<svg width="79" height="102" viewBox="0 0 79 102" fill="none" xmlns="http://www.w3.org/2000/svg">
<path d="M18.084 71.25L18.2295 72.0771C19.0705 76.8569 21.2842 80.4576 24.7949 82.8848C28.3307 85.3292 33.2809 86.6504 39.6963 86.6504V87.6504L39.0869 87.6465C26.3786 87.4812 18.9803 82.113 17.2451 72.25H1.10254C2.74638 89.0535 17.0653 100.463 37.6885 100.815L38.6758 100.824C60.8674 100.824 76.5866 89.3172 77.0723 72.9404L77.084 72.1572C77.084 57.963 70.0329 50.9121 50.5508 45.9951L35.6143 42.377C24.8381 39.6372 19.7245 35.2794 19.5674 28.7725L19.5645 28.4609C19.5645 20.0186 27.3574 14.1738 39.1396 14.1738L39.6924 14.1777C51.0638 14.3512 58.313 19.8905 59.585 28.7705L59.6426 29.2031H75.043C74.3124 13.1301 60.0969 1.37228 40.627 1.00879L39.6963 1C18.4512 1 3.7002 12.7822 3.7002 29.2959L3.70605 29.9102C3.96297 42.7412 12.3151 51.2586 29.0273 55.5508L46.0049 59.9111C56.8591 62.7871 60.8486 66.4981 60.8486 73.3633L60.8428 73.7695C60.5954 82.2564 52.5729 87.6503 39.6963 87.6504V86.6504C46.1116 86.6503 51.1812 85.283 54.6152 82.9502C58.014 80.6412 59.8486 77.3691 59.8486 73.3633C59.8486 70.1587 58.9331 67.8026 56.8232 65.8799C54.6518 63.9011 51.133 62.3047 45.748 60.8779V60.877L28.7783 56.5195C20.185 54.3125 13.6595 50.974 9.27637 46.4219C4.87017 41.8457 2.7002 36.1154 2.7002 29.2959C2.7002 12.0228 18.1317 0 39.6963 0C59.6918 0.00014367 74.7902 11.766 75.9951 28.3633L76.042 29.1582L76.0889 30.2031H58.7549L58.6494 29.3223C58.1238 24.9424 56.1011 21.4383 52.8311 19.0127C49.5441 16.5747 44.9227 15.1739 39.1396 15.1738C33.4029 15.1738 28.7335 16.598 25.5264 18.957C22.3409 21.3002 20.5645 24.5825 20.5645 28.4609L20.5771 29.0254C20.7117 31.8144 21.8593 34.1447 24.1396 36.125C26.6123 38.2723 30.4481 40.031 35.8496 41.4053L50.7861 45.0234L50.7949 45.0254C60.5864 47.4966 67.4342 50.5424 71.8262 54.8857C76.2678 59.2783 78.084 64.8792 78.084 72.1572L78.0713 72.9736C77.8216 81.365 73.722 88.5164 66.9316 93.5889C59.939 98.8124 50.1136 101.824 38.6758 101.824C17.5011 101.824 2.32133 90.4359 0.198242 73.1738L0.106445 72.3477L0 71.25H18.084Z" fill="black"/>
</svg>
