<svg width="987" height="141" viewBox="0 0 987 141" fill="none" xmlns="http://www.w3.org/2000/svg">
<path d="M926.051 109.194L926.196 110.021C927.037 114.801 929.251 118.402 932.762 120.829C936.297 123.274 941.248 124.595 947.663 124.595V125.595L947.054 125.591C934.345 125.426 926.947 120.057 925.212 110.194H909.069C910.713 126.998 925.032 138.407 945.655 138.76L946.643 138.769C968.834 138.768 984.553 127.262 985.039 110.885L985.051 110.102C985.051 95.9073 978 88.8564 958.518 83.9395L943.581 80.3213C932.805 77.5816 927.691 73.2237 927.534 66.7168L927.531 66.4053C927.531 57.9629 935.324 52.1182 947.106 52.1182L947.659 52.1221C959.031 52.2956 966.28 57.8348 967.552 66.7148L967.609 67.1475H983.01C982.279 51.0745 968.064 39.3166 948.594 38.9531L947.663 38.9443C926.418 38.9443 911.667 50.7266 911.667 67.2402L911.673 67.8545C911.93 80.6855 920.282 89.2029 936.994 93.4951L953.972 97.8555C964.826 100.731 968.815 104.442 968.815 111.308L968.81 111.714C968.562 120.201 960.54 125.595 947.663 125.595V124.595C954.078 124.595 959.148 123.227 962.582 120.895C965.981 118.586 967.815 115.313 967.815 111.308C967.815 108.103 966.9 105.747 964.79 103.824C962.619 101.845 959.1 100.249 953.715 98.8223V98.8213L936.745 94.4639C928.152 92.2568 921.626 88.9183 917.243 84.3662C912.837 79.79 910.667 74.0598 910.667 67.2402C910.667 49.9672 926.099 37.9443 947.663 37.9443C967.659 37.9445 982.757 49.7104 983.962 66.3076L984.009 67.1025L984.056 68.1475H966.722L966.616 67.2666C966.091 62.8867 964.068 59.3826 960.798 56.957C957.511 54.519 952.89 53.1182 947.106 53.1182C941.37 53.1182 936.7 54.5423 933.493 56.9014C930.308 59.2446 928.531 62.5269 928.531 66.4053L928.544 66.9697C928.679 69.7587 929.826 72.0891 932.106 74.0693C934.579 76.2166 938.415 77.9753 943.816 79.3496L958.753 82.9678L958.762 82.9697C968.553 85.4409 975.401 88.4867 979.793 92.8301C984.235 97.2226 986.051 102.824 986.051 110.102L986.038 110.918C985.788 119.309 981.689 126.461 974.898 131.533C967.906 136.757 958.08 139.768 946.643 139.769C925.468 139.769 910.288 128.38 908.165 111.118L908.073 110.292L907.967 109.194H926.051Z" fill="black"/>
<path d="M860.44 74.4766C860.44 52.582 848.194 38.9443 827.042 38.9443C812.106 38.9444 801.808 45.6241 796.427 56.0146H796.056V40.6143H780.841V137.099H796.983V80.3213C796.983 63.9933 806.91 53.2316 822.125 53.2314C836.969 53.2314 844.298 61.7666 844.298 77.3525V137.099H860.44V74.4766ZM797.056 52.9209C802.936 43.6968 813.052 37.9444 827.042 37.9443C837.84 37.9443 846.477 41.432 852.406 47.8193C858.327 54.1969 861.44 63.3482 861.44 74.4766V138.099H843.298V77.3525C843.298 69.6994 841.497 63.9486 838.036 60.1172C834.591 56.3041 829.354 54.2314 822.125 54.2314C814.765 54.2315 808.757 56.8281 804.583 61.333C800.402 65.8456 797.983 72.3587 797.983 80.3213V138.099H779.841V39.6143H797.056V52.9209Z" fill="black"/>
<path d="M732.213 88.8564C732.213 58.0557 714.215 38.9443 687.589 38.9443C660.87 38.9444 642.872 58.0557 642.872 88.8564C642.872 119.564 660.87 138.768 687.589 138.769C714.215 138.769 732.213 119.564 732.213 88.8564ZM714.792 88.8564C714.792 77.6431 712.046 68.9608 707.314 63.1025C702.603 57.2689 695.848 54.1387 687.589 54.1387C679.329 54.1387 672.551 57.2696 667.816 63.1045C663.063 68.9631 660.293 77.6449 660.293 88.8564C660.293 100.068 663.063 108.75 667.816 114.608C672.551 120.443 679.329 123.574 687.589 123.574V124.574C670.519 124.574 659.293 111.586 659.293 88.8564C659.293 66.127 670.519 53.1388 687.589 53.1387C704.659 53.1387 715.792 66.127 715.792 88.8564C715.792 111.586 704.659 124.574 687.589 124.574V123.574C695.848 123.574 702.603 120.444 707.314 114.61C712.046 108.752 714.792 100.07 714.792 88.8564ZM733.213 88.8564C733.213 104.403 728.655 117.138 720.627 125.999C712.591 134.869 701.155 139.769 687.589 139.769C673.978 139.769 662.519 134.87 654.471 126C646.43 117.139 641.872 104.403 641.872 88.8564C641.872 73.264 646.43 60.5276 654.471 51.6777C662.52 42.819 673.979 37.9444 687.589 37.9443C701.153 37.9443 712.589 42.8194 720.626 51.6777C728.655 60.5274 733.213 73.2639 733.213 88.8564Z" fill="black"/>
<path d="M577.359 40.6143V137.099H593.502V40.6143H577.359ZM595.543 14.3594C595.543 8.79297 590.997 4.33984 585.431 4.33984C579.957 4.33984 575.411 8.79297 575.411 14.3594C575.411 19.833 579.957 24.3789 585.431 24.3789C590.997 24.3789 595.543 19.833 595.543 14.3594ZM594.502 138.099H576.359V39.6143H594.502V138.099ZM596.543 14.3594C596.543 20.3913 591.543 25.3789 585.431 25.3789C579.405 25.3789 574.411 20.3853 574.411 14.3594C574.411 8.23467 579.411 3.33984 585.431 3.33984C591.537 3.33984 596.543 8.22871 596.543 14.3594Z" fill="black"/>
<path d="M508.229 111.215V53.8809H526.969V40.6143H508.229V17.3281H492.086V40.6143H477.706V53.8809H492.086V112.05L492.091 112.911C492.3 130.544 499.01 137.616 515.848 137.836L516.671 137.841C520.475 137.841 524.928 137.562 526.876 137.099V123.554C525.763 123.739 522.052 124.018 520.196 124.018V123.018C522.013 123.018 525.665 122.742 526.711 122.567L527.876 122.373V137.889L527.107 138.071C525.034 138.565 520.476 138.841 516.671 138.841C507.709 138.841 501.221 137.016 497.009 132.593C492.809 128.182 491.086 121.409 491.086 112.05V54.8809H476.706V39.6143H491.086V16.3281H509.229V39.6143H527.969V54.8809H509.229V111.215L509.239 112.004C509.345 115.867 510.243 118.522 511.847 120.239C513.543 122.056 516.213 123.018 520.196 123.018V124.018L519.436 124.006C511.96 123.771 508.458 120.008 508.239 112.027L508.229 111.215Z" fill="black"/>
<path d="M370.074 100.36V40.6143H353.932V103.236L353.94 104.257C354.313 125.216 366.212 138.347 386.349 138.759L387.33 138.769C402.174 138.768 412.193 132.553 417.945 121.42H418.316V137.099H433.624V40.6143H417.481V97.2988L417.475 98.0645C417.184 114.053 407.773 124.481 392.34 124.481V123.481C399.939 123.481 405.941 120.881 410.051 116.374C414.171 111.856 416.481 105.321 416.481 97.2988V39.6143H434.624V138.099H417.316V124.547C414.536 129.004 410.963 132.574 406.549 135.134C401.289 138.184 394.892 139.768 387.33 139.769C376.577 139.769 367.941 136.28 362.001 129.894C356.07 123.517 352.932 114.366 352.932 103.236V39.6143H371.074V100.36L371.079 101.076C371.188 108.418 372.984 113.929 376.346 117.628C379.8 121.429 385.059 123.481 392.34 123.481V124.481L391.645 124.476C377.405 124.22 370.301 116.059 370.079 101.09L370.074 100.36Z" fill="black"/>
<path d="M284.15 3.22656V137.099H300.293V3.22656H284.15ZM301.293 138.099H283.15V2.22656H301.293V138.099Z" fill="black"/>
<path d="M234.688 88.8564C234.688 58.0557 216.689 38.9443 190.063 38.9443C163.345 38.9444 145.347 58.0557 145.347 88.8564C145.347 119.564 163.345 138.768 190.063 138.769C216.689 138.769 234.688 119.564 234.688 88.8564ZM217.267 88.8564C217.267 77.6431 214.52 68.9608 209.789 63.1025C205.078 57.2689 198.323 54.1387 190.063 54.1387C181.804 54.1387 175.026 57.2696 170.291 63.1045C165.537 68.9631 162.768 77.6449 162.768 88.8564C162.768 100.068 165.537 108.75 170.291 114.608C175.026 120.443 181.804 123.574 190.063 123.574V124.574C172.993 124.574 161.768 111.586 161.768 88.8564C161.768 66.127 172.993 53.1388 190.063 53.1387C207.134 53.1387 218.267 66.127 218.267 88.8564C218.267 111.586 207.134 124.574 190.063 124.574V123.574C198.323 123.574 205.078 120.444 209.789 114.61C214.52 108.752 217.267 100.07 217.267 88.8564ZM235.688 88.8564C235.688 104.403 231.13 117.138 223.102 125.999C215.065 134.869 203.629 139.769 190.063 139.769C176.453 139.769 164.994 134.87 156.945 126C148.905 117.139 144.347 104.403 144.347 88.8564C144.347 73.264 148.904 60.5276 156.945 51.6777C164.994 42.819 176.454 37.9444 190.063 37.9443C203.627 37.9443 215.064 42.8194 223.101 51.6777C231.13 60.5274 235.688 73.2639 235.688 88.8564Z" fill="black"/>
<path d="M18.7578 99.2676L18.8555 100.159C20.3553 113.922 33.4463 123.296 52.2803 123.296V124.296C33.1689 124.296 19.4385 114.74 17.8613 100.268H1.06934C2.64648 123.925 22.3145 139.325 50.7031 139.325C81.5039 139.325 100.801 124.018 100.801 99.5254C100.801 80.3213 89.5752 69.6523 61.8359 62.6943L47.8271 58.9834C29.6436 54.252 22.2217 48.2217 22.2217 38.1094C22.2217 25.0283 34.2822 16.0293 51.6309 16.0293C69.0723 16.0293 80.6689 24.8428 82.1533 39.2227H98.8525C98.1104 16.7715 78.8135 1 52.1875 1C24.3555 1 4.87305 16.5859 4.87305 38.8516C4.87305 57.0352 15.8203 67.8896 40.498 74.1982L57.6611 78.6514C75.6592 83.29 83.5449 90.248 83.5449 101.566C83.5449 114.74 70.3711 124.296 52.2803 124.296V123.296C61.159 123.296 68.7574 120.95 74.1084 117.062C79.4458 113.185 82.5449 107.785 82.5449 101.566C82.5449 96.1814 80.6871 91.8889 76.6895 88.3525C72.8957 84.9966 67.129 82.2833 59.0566 80.0586L57.4111 79.6201L57.4102 79.6191L40.25 75.166V75.167C27.8325 71.9926 18.7299 67.642 12.7275 61.6875C6.68926 55.6973 3.87305 48.1686 3.87305 38.8516C3.87305 27.401 8.89306 17.6555 17.4688 10.7949C26.0294 3.94652 38.092 0 52.1875 0C79.1926 0 99.0866 16.0523 99.8516 39.1895L99.8857 40.2227H81.251L81.1582 39.3252C80.4431 32.3979 77.3053 26.8553 72.2705 23.0293C67.2199 19.1915 60.1894 17.0293 51.6309 17.0293C43.1196 17.0293 35.9928 19.2375 31.0205 22.9639C26.0674 26.6759 23.2217 31.9095 23.2217 38.1094C23.2217 42.8646 24.9415 46.6158 28.8369 49.7891C32.5478 52.812 38.2568 55.3268 46.415 57.5703L48.0791 58.0156L48.083 58.0166L62.0918 61.7275H62.0908C76.0137 65.221 85.9504 69.6794 92.4082 75.791C98.9166 81.9505 101.801 89.7008 101.801 99.5254C101.801 112.06 96.8496 122.304 87.9238 129.393C79.0235 136.461 66.2573 140.325 50.7031 140.325C36.3334 140.325 24.0876 136.427 15.2139 129.454C6.32659 122.47 0.878581 112.443 0.0712891 100.334L0 99.2676H18.7578Z" fill="black"/>
</svg>
