<svg width="62" height="125" viewBox="0 0 62 125" fill="none" xmlns="http://www.w3.org/2000/svg">
<path d="M19.3691 91.918V44.3252H1V23.915H19.3691V1H46.459V23.915H60.4678V44.3252H46.459V96.5566C46.459 115.946 37.3672 123.739 13.9883 123.739C8.51465 123.739 3.87598 123.275 1.09277 122.626V102.68C2.7627 102.958 5.26758 103.144 7.67969 103.144V102.144C5.30656 102.144 2.85857 101.96 1.25684 101.693L0.0927734 101.499V123.42L0.865234 123.6C3.75196 124.273 8.4752 124.739 13.9883 124.739C25.7429 124.739 34.1617 122.79 39.6348 118.185C45.1535 113.54 47.459 106.389 47.459 96.5566V45.3252H61.4678V22.915H47.459V0H18.3691V22.915H0V45.3252H18.3691V91.918C18.3691 95.5737 17.4776 98.0675 15.8223 99.6631C14.1593 101.266 11.5388 102.144 7.67969 102.144V103.144C15.6582 103.144 19.3691 99.5254 19.3691 91.918Z" fill="#2FB777"/>
</svg>
