<svg width="52" height="123" viewBox="0 0 52 123" fill="none" xmlns="http://www.w3.org/2000/svg">
<path d="M31.5225 94.8867V37.5527H50.2627V24.2861H31.5225V1H15.3799V24.2861H1V37.5527H15.3799V95.7217L15.3848 96.583C15.5935 114.216 22.3035 121.288 39.1416 121.508L39.9648 121.513C43.7685 121.513 48.2217 121.234 50.1699 120.771V107.226C49.0567 107.411 45.3458 107.689 43.4902 107.689V106.689C45.3065 106.689 48.9592 106.413 50.0049 106.239L51.1699 106.045V121.561L50.4014 121.743C48.3279 122.237 43.7701 122.513 39.9648 122.513C31.0027 122.513 24.515 120.688 20.3027 116.265C16.1026 111.854 14.3799 105.081 14.3799 95.7217V38.5527H0V23.2861H14.3799V0H32.5225V23.2861H51.2627V38.5527H32.5225V94.8867L32.5332 95.6758C32.6393 99.5386 33.5371 102.194 35.1406 103.911C36.837 105.728 39.5072 106.689 43.4902 106.689V107.689L42.7295 107.678C35.2543 107.443 31.7515 103.68 31.5332 95.6992L31.5225 94.8867Z" fill="black"/>
</svg>
