<svg width="82" height="101" viewBox="0 0 82 101" fill="none" xmlns="http://www.w3.org/2000/svg">
<path d="M17.1426 60.7461V1H1V63.6221L1.00879 64.6426C1.38157 85.6014 13.2807 98.7328 33.417 99.1445L34.3984 99.1543C49.242 99.1542 59.2618 92.9384 65.0137 81.8057H65.3848V97.4844H80.6924V1H64.5498V57.6846L64.543 58.4502C64.2526 74.439 54.8417 84.867 39.4082 84.8672V83.8672C47.0071 83.8671 53.009 81.2666 57.1191 76.7598C61.2394 72.2418 63.5498 65.7072 63.5498 57.6846V0H81.6924V98.4844H64.3848V84.9326C61.6047 89.3892 58.0316 92.9595 53.6172 95.5195C48.3575 98.5697 41.9608 100.154 34.3984 100.154C23.6452 100.154 15.0097 96.6655 9.06934 90.2793C3.13793 83.9026 0 74.7522 0 63.6221V0H18.1426V60.7461L18.1475 61.4619C18.2563 68.8042 20.0521 74.3145 23.4141 78.0137C26.8686 81.8146 32.1275 83.8672 39.4082 83.8672V84.8672L38.7129 84.8613C24.4735 84.6059 17.3694 76.445 17.1475 61.4756L17.1426 60.7461Z" fill="black"/>
</svg>
